<?xml version="1.0" encoding="UTF-8" standalone="no"?>
<svg
   xmlns:dc="http://purl.org/dc/elements/1.1/"
   xmlns:cc="http://creativecommons.org/ns#"
   xmlns:rdf="http://www.w3.org/1999/02/22-rdf-syntax-ns#"
   xmlns:svg="http://www.w3.org/2000/svg"
   xmlns="http://www.w3.org/2000/svg"
   viewBox="0 0 111.11113 111.11113"
   height="111.11113"
   width="111.11113"
   xml:space="preserve"
   id="svg2"
   version="1.1"><metadata
     id="metadata8"><rdf:RDF><cc:Work
         rdf:about=""><dc:format>image/svg+xml</dc:format><dc:type
           rdf:resource="http://purl.org/dc/dcmitype/StillImage" /></cc:Work></rdf:RDF></metadata><defs
     id="defs6" /><g
     transform="matrix(1.3333333,0,0,-1.3333333,0,111.11113)"
     id="g10"><g
       id="g12"><path
         id="path14"
         style="fill:#ffbad3;fill-opacity:1;fill-rule:nonzero;stroke:none"
         d="M 41.666672,83.333344 C 18.666668,83.333344 0,64.666672 0,41.666672 0,18.666672 18.666668,0 41.666672,0 c 23,0 41.666672,18.666672 41.666672,41.666672 0,23 -18.666672,41.666672 -41.666672,41.666672 z M 58.333336,37.500008 h -12.5 v -12.5 c 0,-2.291668 -1.875,-4.166668 -4.166664,-4.166668 -2.291668,0 -4.166668,1.875 -4.166668,4.166668 v 12.5 H 25.000002 c -2.291666,0 -4.166666,1.875 -4.166666,4.166664 0,2.291668 1.875,4.166668 4.166666,4.166668 h 12.500002 v 12.500004 c 0,2.291664 1.875,4.166664 4.166668,4.166664 2.291664,0 4.166664,-1.875 4.166664,-4.166664 V 45.83334 h 12.5 c 2.291668,0 4.166668,-1.875 4.166668,-4.166668 0,-2.291664 -1.875,-4.166664 -4.166668,-4.166664 z" /></g></g></svg>