<?xml version="1.0" encoding="UTF-8" standalone="no"?>
<!DOCTYPE svg PUBLIC "-//W3C//DTD SVG 1.1//EN" "http://www.w3.org/Graphics/SVG/1.1/DTD/svg11.dtd">
<svg xmlns="http://www.w3.org/2000/svg" xmlns:xlink="http://www.w3.org/1999/xlink" version="1.1" width="45.833337pt" height="45.83333pt" viewBox="0 0 45.833337 45.83333">
<g enable-background="new">
<path transform="matrix(1,0,0,-1,0,45.83333)" d="M 22.916668 45.83333 C 10.266667 45.83333 0 35.56666 0 22.91666 C 0 10.266659 10.266667 -.000008 22.916668 -.000008 C 35.56667 -.000008 45.833337 10.266659 45.833337 22.91666 C 45.833337 35.56666 35.56667 45.83333 22.916668 45.83333 Z M 32.083337 20.624995 L 25.208334 20.624995 L 25.208334 13.749992 C 25.208334 12.489578 24.177084 11.458328 22.916668 11.458328 C 21.65625 11.458328 20.625 12.489578 20.625 13.749992 L 20.625 20.624995 L 13.75 20.624995 C 12.489584 20.624995 11.458334 21.656245 11.458334 22.91666 C 11.458334 24.177079 12.489584 25.208329 13.75 25.208329 L 20.625 25.208329 L 20.625 32.08333 C 20.625 33.343744 21.65625 34.374994 22.916668 34.374994 C 24.177084 34.374994 25.208334 33.343744 25.208334 32.08333 L 25.208334 25.208329 L 32.083337 25.208329 C 33.34375 25.208329 34.375 24.177079 34.375 22.91666 C 34.375 21.656245 33.34375 20.624995 32.083337 20.624995 Z " fill="#97daff"/>
</g>
</svg>
