<?xml version="1.0" encoding="UTF-8" standalone="no"?>
<!DOCTYPE svg PUBLIC "-//W3C//DTD SVG 1.1//EN" "http://www.w3.org/Graphics/SVG/1.1/DTD/svg11.dtd">
<svg xmlns="http://www.w3.org/2000/svg" xmlns:xlink="http://www.w3.org/1999/xlink" version="1.1" width="38.043748pt" height="33.75pt" viewBox="0 0 38.043748 33.75">
<g enable-background="new">
<path transform="matrix(1,0,0,-1,.272552,33.75)" d="M 37.302446 22.70625 L 35.333696 30.9 C 34.921197 32.5875 33.458696 33.75 31.752446 33.75 L 5.708692 33.75 C 4.021192 33.75 2.539942 32.56875 2.146192 30.9 L .177442 22.70625 C -.272558 20.79375 .139942 18.84375 1.339942 17.30625 C 1.489942 17.099999 1.696192 16.949999 1.864942 16.762499 L 1.864942 3.75 C 1.864942 1.6875 3.552442 0 5.614942 0 L 31.864945 0 C 33.927446 0 35.614946 1.6875 35.614946 3.75 L 35.614946 16.762499 C 35.783697 16.93125 35.989946 17.1 36.139947 17.2875 C 37.339944 18.825 37.771196 20.79375 37.302446 22.70625 Z M 31.696194 30.018752 L 33.66494 21.825 C 33.852445 21.0375 33.683694 20.25 33.19619 19.63125 C 32.933694 19.29375 32.371194 18.75 31.433695 18.75 C 30.289944 18.75 29.29619 19.66875 29.16494 20.8875 L 28.07744 30 L 31.696194 30.018752 Z M 20.614943 30 L 24.289942 30 L 25.302443 21.525 C 25.396193 20.793749 25.171193 20.0625 24.683691 19.51875 C 24.271193 19.03125 23.671193 18.75 22.902443 18.75 C 21.646193 18.75 20.614943 19.85625 20.614943 21.206252 L 20.614943 30 Z M 12.158691 21.525 L 13.189941 30 L 16.864943 30 L 16.864943 21.206252 C 16.864943 19.85625 15.833692 18.75 14.446192 18.75 C 13.808692 18.75 13.227441 19.03125 12.777441 19.51875 C 12.308691 20.0625 12.083692 20.793749 12.158691 21.525 Z M 3.814942 21.825 L 5.708692 30 L 9.402442 30 L 8.314941 20.8875 C 8.164942 19.66875 7.189942 18.75 6.046192 18.75 C 5.127442 18.75 4.546192 19.29375 4.302442 19.63125 C 3.796192 20.23125 3.627442 21.0375 3.814942 21.825 Z M 5.614942 3.75 L 5.614942 15.05625 C 5.764942 15.0375 5.896192 15 6.046192 15 C 7.677442 15 9.158691 15.674999 10.246191 16.78125 C 11.371191 15.65625 12.871191 15 14.577441 15 C 16.20869 15 17.671193 15.675001 18.758692 16.743752 C 19.864943 15.675001 21.364943 15 23.052443 15 C 24.627442 15 26.127444 15.65625 27.252444 16.78125 C 28.339943 15.674999 29.821196 15 31.452445 15 C 31.602446 15 31.733695 15.0375 31.883694 15.05625 L 31.883694 3.75 L 5.614942 3.75 Z " fill="#97daff"/>
</g>
</svg>
