<?xml version="1.0" encoding="UTF-8" standalone="no"?>
<!DOCTYPE svg PUBLIC "-//W3C//DTD SVG 1.1//EN" "http://www.w3.org/Graphics/SVG/1.1/DTD/svg11.dtd">
<svg xmlns="http://www.w3.org/2000/svg" xmlns:xlink="http://www.w3.org/1999/xlink" version="1.1" width="17.49pt" height="17.490006pt" viewBox="0 0 17.49 17.490006">
<g enable-background="new">
<path transform="matrix(1,0,0,-1,0,17.490006)" d="M 12.5 6.490005 L 11.71 6.490005 L 11.43 6.760006 C 12.41 7.900006 13 9.380006 13 10.990005 C 13 14.580006 10.09 17.490006 6.5 17.490006 C 2.91 17.490006 0 14.580006 0 10.990005 C 0 7.400005 2.91 4.490005 6.5 4.490005 C 8.11 4.490005 9.589999 5.080006 10.73 6.060005 L 11 5.780005 L 11 4.990005 L 16 .000006 L 17.49 1.490005 L 12.5 6.490005 Z M 6.5 6.490005 C 4.01 6.490005 2 8.500006 2 10.990005 C 2 13.480005 4.01 15.490005 6.5 15.490005 C 8.99 15.490005 11 13.480005 11 10.990005 C 11 8.500006 8.99 6.490005 6.5 6.490005 Z " fill="#ffffff"/>
</g>
</svg>
