<?xml version="1.0" encoding="UTF-8" standalone="no"?>
<svg
   xmlns:dc="http://purl.org/dc/elements/1.1/"
   xmlns:cc="http://creativecommons.org/ns#"
   xmlns:rdf="http://www.w3.org/1999/02/22-rdf-syntax-ns#"
   xmlns:svg="http://www.w3.org/2000/svg"
   xmlns="http://www.w3.org/2000/svg"
   viewBox="0 0 112.72223 99.999977"
   height="99.999977"
   width="112.72223"
   xml:space="preserve"
   id="svg2"
   version="1.1"><metadata
     id="metadata8"><rdf:RDF><cc:Work
         rdf:about=""><dc:format>image/svg+xml</dc:format><dc:type
           rdf:resource="http://purl.org/dc/dcmitype/StillImage" /></cc:Work></rdf:RDF></metadata><defs
     id="defs6" /><g
     transform="matrix(1.3333333,0,0,-1.3333333,0,99.99998)"
     id="g10"><g
       transform="translate(0.605686)"
       id="g12"><path
         id="path14"
         style="fill:#feb2b2;fill-opacity:1;fill-rule:nonzero;stroke:none"
         d="m 82.894318,50.458321 -4.375,18.208335 c -0.916664,3.749993 -4.166664,6.333329 -7.958336,6.333329 h -57.875 c -3.75,0 -7.041667,-2.625 -7.916667,-6.333329 l -4.375,-18.208335 c -1,-4.25 -0.083333,-8.583332 2.583333,-12 0.333334,-0.458332 0.791667,-0.791665 1.166667,-1.208332 V 8.333328 C 4.144315,3.749992 7.894314,0 12.477648,0 h 58.333334 c 4.583336,0 8.333336,3.749992 8.333336,8.333328 v 28.916661 c 0.375,0.375 0.833336,0.750003 1.166664,1.166667 2.666672,3.416668 3.625,7.791665 2.583336,12.041665 z m -12.458336,16.25 4.375,-18.208329 c 0.416664,-1.75 0.04166,-3.5 -1.041672,-4.875 -0.583328,-0.75 -1.833328,-1.958336 -3.916656,-1.958336 -2.541672,0 -4.750008,2.041668 -5.04168,4.75 l -2.416664,20.25 8.041672,0.04166 z m -24.625,-0.04166 h 8.166664 l 2.25,-18.833335 c 0.208332,-1.625 -0.291668,-3.25 -1.375,-4.458332 -0.916664,-1.083333 -2.25,-1.708333 -3.958332,-1.708333 -2.791668,0 -5.083332,2.458336 -5.083332,5.458336 z M 27.019314,47.833326 29.31098,66.666661 h 8.166666 V 47.124997 c 0,-3 -2.291664,-5.458336 -5.375,-5.458336 -1.416666,0 -2.708334,0.625 -3.708334,1.708333 -1.041666,1.208332 -1.541666,2.833332 -1.374998,4.458332 z m -18.541666,0.666671 4.208334,18.166664 h 8.208332 l -2.416666,-20.25 c -0.333334,-2.708332 -2.5,-4.75 -5.041667,-4.75 -2.041666,0 -3.333332,1.208336 -3.874999,1.958336 -1.125,1.333332 -1.500001,3.125 -1.083334,4.875 z m 4,-40.166664 v 25.124996 c 0.333333,-0.04167 0.625,-0.125 0.958333,-0.125 3.625001,0 6.916665,1.5 9.333333,3.958332 2.5,-2.5 5.833332,-3.958332 9.625,-3.958332 3.625,0 6.875,1.5 9.291668,3.875 2.458332,-2.375 5.791664,-3.875 9.541664,-3.875 3.5,0 6.833336,1.458332 9.333336,3.958332 2.416668,-2.458332 5.708336,-3.958332 9.333336,-3.958332 0.333336,0 0.625,0.08333 0.958336,0.125 V 8.333333 Z" /></g></g></svg>