<?xml version="1.0" encoding="UTF-8" standalone="no"?>
<!DOCTYPE svg PUBLIC "-//W3C//DTD SVG 1.1//EN" "http://www.w3.org/Graphics/SVG/1.1/DTD/svg11.dtd">
<svg xmlns="http://www.w3.org/2000/svg" xmlns:xlink="http://www.w3.org/1999/xlink" version="1.1" width="28.875pt" height="37.67737pt" viewBox="0 0 28.875 37.67737">
<g enable-background="new">
<path transform="matrix(1,0,0,-1,0,33.75)" d="M 1.875 3.75 C 1.875 1.6875 3.5625 0 5.625001 0 L 20.625002 0 C 22.687504 0 24.375004 1.6875 24.375004 3.75 L 24.375004 26.25 L 1.875 26.25 L 1.875 3.75 Z M 5.625001 22.5 L 20.625002 22.5 L 20.625002 3.75 L 5.625001 3.75 L 5.625001 22.5 Z M 19.687502 31.875 L 17.812502 33.75 L 8.437501 33.75 L 6.562501 31.875 L 0 31.875 L 0 28.125 L 26.250004 28.125 L 26.250004 31.875 L 19.687502 31.875 Z " fill="#ff6767"/>
<path transform="matrix(1,0,0,-1,15.375,37.125)" d="M 13.5 6.75 C 13.5 3.022078 10.477922 0 6.75 0 C 3.022078 0 0 3.022078 0 6.75 C 0 10.477922 3.022078 13.5 6.75 13.5 C 10.477922 13.5 13.5 10.477922 13.5 6.75 Z " fill="#ff6767"/>
<path transform="matrix(.672673,.73994,.73994,-.672673,6.783285,33.583379)" d="M 0 13.13176 L 16.724328 13.13176 L 16.724328 14.25676 L 0 14.25676 L 0 13.13176 Z " fill="#ff6767"/>
<path transform="matrix(.650791,-.759257,-.759257,-.650791,26.853363,45.999315)" d="M -.009257 13.073761 L 16.731816 12.798221 L 16.750329 13.923068 L .009257 14.198608 L -.009257 13.073761 Z " fill="#ff6767"/>
</g>
</svg>
